<?xml version="1.0" encoding="UTF-8" standalone="no"?>
<svg
   version="1.1"
   id="svg248"
   width="190"
   height="44.999996"
   xmlns="http://www.w3.org/2000/svg"
   xmlns:svg="http://www.w3.org/2000/svg">
  <defs
     id="defs1" />
  <g
     id="g248"
     transform="translate(-597.99999,-35)">
    <path
       stroke="none"
       fill="#838796"
       d="M 784,40.35 783.95,40.3 784,41 v 5.3 l -2.4,2.4 2.4,2.4 V 74 q 0,1.95 -1.85,2 h -35.1 L 745.5,74.45 743.95,76 H 701.4 L 698.65,73.25 695.9,76 h -92 Q 602,75.95 602,74 V 70.4 L 604.75,67.65 602,64.9 V 41 l 0.05,-0.5 0.05,-0.2 Q 602.35,39 604,39 h 17.05 l 2.25,2.25 2.25,-2.25 h 9.35 l 2.8,2.8 2.8,-2.8 H 782 q 1.65,0 2,1.35"
       id="path115" />
    <path
       stroke="none"
       fill="#727685"
       d="M 784,40.35 Q 783.65,39 782,39 H 640.5 l -2.8,2.8 -2.8,-2.8 h -9.35 L 623.3,41.25 621.05,39 H 604 q -1.65,0 -1.9,1.3 L 602.05,40.5 602,41 v 23.9 l 2.75,2.75 L 602,70.4 V 74 q 0,1.95 1.9,2 h 92 l 2.75,-2.75 2.75,2.75 h 42.55 l 1.55,-1.55 1.55,1.55 h 35.1 Q 784,75.95 784,74 V 51.1 l -2.4,-2.4 2.4,-2.4 V 41 l -0.05,-0.7 0.05,0.05 M 782,37 q 3.5,0 3.95,3.05 L 786,41 v 33 l -0.05,1 Q 785.5,78 782,78 H 604 q -3.5,0 -3.9,-3 L 600,74 V 41 l 0.1,-0.95 Q 600.5,37 604,37 h 178"
       id="path116" />
    <path
       stroke="none"
       fill="#9b9dad"
       d="M 782,37 H 604 q -3.5,0 -3.9,3.05 L 600,41 v 33 l 0.1,1 q 0.4,3 3.9,3 h 178 q 3.5,0 3.95,-3 L 786,74 V 41 l -0.05,-0.95 Q 785.5,37 782,37 m 6,4 v 33 0.25 Q 787.85,80 782,80 h -178 -0.25 -0.15 -0.2 -0.1 -0.1 -0.1 q -4.7,-0.4 -5.05,-5.15 L 598,74.25 V 74 41 q 0,-6 6,-6 h 178 q 6,0 6,6"
       id="path117" />
  </g>
</svg>
